# xmcd
#
# Track frame offsets: 
#        183
#        15113
#        34350
#        52553
#        82423
#        96410
#        115465
#        127250
#        145895
#        180303
#        211965
#        250923
#        272590
#        295398
#        316185
#
# Disc length: 4561 seconds
#
# Revision: 1
# Processed by: cddbd v1.5.2PL0 Copyright (c) Steve Scherf et al.
# Submitted via: ExactAudioCopyFreeDBPlugin 1.0
#
DISCID=d811cf0f
DTITLE=Eddie 'Cleanhead' Vinson - Meat's Too High Plus
DYEAR=1994
DGENRE=Blues
TTITLE0=Home Boy
TTITLE1=Meat's Too High
TTITLE2=Somebody's Got To Go
TTITLE3=Somebody Else Has Taken My Place
TTITLE4=Investigation Blues
TTITLE5=If You Were My Buddy
TTITLE6=Old Maid Boogie
TTITLE7=That's All
TTITLE8=Travellin'
TTITLE9=Racetrack Blues
TTITLE10=Cleanhead's Thing
TTITLE11=Fun In London
TTITLE12=Roxanne
TTITLE13=High Class Baby
TTITLE14=Straight Away
EXTD=
EXTT0=
EXTT1=
EXTT2=
EXTT3=
EXTT4=
EXTT5=
EXTT6=
EXTT7=
EXTT8=
EXTT9=
EXTT10=
EXTT11=
EXTT12=
EXTT13=
EXTT14=
PLAYORDER=
